<svg
  width="25"
  height="25"
  viewBox="0 0 25 25"
  fill="none"
  xmlns="http://www.w3.org/2000/svg"
>
    <path
    d="M2.67962 3.16248L5.135 0.707107C5.52552 0.316582 6.15869 0.316583 6.54921 0.707108L10.6087 4.76658C10.9992 5.1571 10.9992 5.79027 10.6087 6.18079L7.8954 8.89408C7.4864 9.30307 7.385 9.9279 7.64368 10.4452C9.13903 13.4359 11.5641 15.861 14.5548 17.3563C15.0721 17.615 15.6969 17.5136 16.1059 17.1046L18.8192 14.3913C19.2097 14.0008 19.8429 14.0008 20.2334 14.3913L24.2929 18.4508C24.6834 18.8413 24.6834 19.4745 24.2929 19.865L21.8375 22.3204C19.7262 24.4317 16.3836 24.6693 13.9949 22.8777L9.8391 19.7609C8.09557 18.4533 6.54674 16.9044 5.2391 15.1609L2.12226 11.0051C0.330723 8.6164 0.568271 5.27383 2.67962 3.16248Z"
    fill="#0047FF"
  />
    </svg>
