<svg
  width="32"
  height="32"
  viewBox="0 0 32 32"
  fill="none"
  xmlns="http://www.w3.org/2000/svg"
>
    <path
    d="M0 16C0 24.8366 7.16344 32 16 32C24.8366 32 32 24.8366 32 16C32 7.16344 24.8366 0 16 0C7.16344 0 0 7.16344 0 16Z"
    fill="#0047FF"
  />
    <path
    d="M8.96243 15.166C12.7205 13.4725 15.2265 12.3561 16.4804 11.8167C20.0604 10.2765 20.8043 10.009 21.2892 10.0001C21.3958 9.99824 21.6343 10.0256 21.7887 10.1552C21.9192 10.2646 21.955 10.4125 21.9722 10.5163C21.9894 10.6201 22.0108 10.8564 21.9938 11.0412C21.7998 13.1495 20.9603 18.2658 20.5332 20.6271C20.3525 21.6263 19.9967 21.9613 19.6522 21.9941C18.9036 22.0653 18.3351 21.4824 17.6101 20.9908C16.4755 20.2215 15.8345 19.7427 14.7332 18.992C13.4604 18.1245 14.2855 17.6477 15.0108 16.8685C15.2006 16.6646 18.4991 13.5616 18.5629 13.2801C18.5709 13.2449 18.5783 13.1136 18.503 13.0443C18.4276 12.975 18.3163 12.9987 18.236 13.0176C18.1222 13.0443 16.3097 14.2834 12.7984 16.7349C12.2839 17.1003 11.8179 17.2783 11.4004 17.269C10.9401 17.2587 10.0547 16.9998 9.39648 16.7785C8.58916 16.5071 7.94752 16.3636 8.00339 15.9026C8.03249 15.6625 8.35217 15.417 8.96243 15.166Z"
    fill="white"
  />
    </svg>
