<svg
  width="26"
  height="26"
  viewBox="0 0 26 26"
  fill="none"
  xmlns="http://www.w3.org/2000/svg"
>
    <path
    d="M14 13.7059C14 13.1536 13.5523 12.7059 13 12.7059C12.4477 12.7059 12 13.1536 12 13.7059H14ZM12 19.3529C12 19.9052 12.4477 20.3529 13 20.3529C13.5523 20.3529 14 19.9052 14 19.3529H12ZM23.6667 23.902L23.031 23.13L23.6667 23.902ZM2.33333 23.902L2.96904 23.13H2.96904L2.33333 23.902ZM23.6667 6.33333L24.3024 5.5614V5.5614L23.6667 6.33333ZM2.33333 6.33333L1.69763 5.5614H1.69763L2.33333 6.33333ZM14 16.5294V13.7059H12V16.5294H14ZM12 16.5294V19.3529H14V16.5294H12ZM13 15.5294C10.0612 15.5294 7.17094 15.1818 5.06223 14.5169C4.00254 14.1827 3.20941 13.7896 2.70546 13.3749C2.2147 12.971 2.08168 12.6248 2.09138 12.3266L0.0924378 12.2616C0.0561906 13.3752 0.638699 14.2642 1.4346 14.9192C2.21729 15.5633 3.28193 16.0526 4.46075 16.4243C6.82906 17.1711 9.93882 17.5294 13 17.5294V15.5294ZM13 17.5294C16.0612 17.5294 19.1709 17.1711 21.5393 16.4243C22.7181 16.0526 23.7827 15.5633 24.5654 14.9192C25.3613 14.2643 25.9438 13.3752 25.9076 12.2616L23.9086 12.3266C23.9183 12.6248 23.7853 12.971 23.2946 13.3749C22.7906 13.7896 21.9975 14.1827 20.9378 14.5169C18.8291 15.1818 15.9388 15.5294 13 15.5294V17.5294ZM24 15.1176C24 17.2679 23.8365 19.274 23.5956 20.7945C23.4748 21.5573 23.338 22.1759 23.2007 22.6205C23.1319 22.8436 23.0692 23.0019 23.0186 23.1044C22.9579 23.2274 22.9505 23.1963 23.031 23.13L24.3024 24.6739C24.5495 24.4704 24.7087 24.1991 24.8121 23.9896C24.9256 23.7597 25.0244 23.4934 25.1118 23.2104C25.287 22.6428 25.4418 21.9231 25.571 21.1074C25.8302 19.4711 26 17.3596 26 15.1176H24ZM23.031 23.13C23.0969 23.0757 23.0993 23.0979 22.9183 23.1585C22.7667 23.2092 22.55 23.2665 22.2638 23.3264C21.6936 23.4457 20.9169 23.5616 19.9765 23.6626C18.0997 23.8642 15.6357 24 13 24V26C15.6976 26 18.2336 25.8613 20.1901 25.6511C21.1665 25.5463 22.0147 25.4219 22.6737 25.2839C23.0021 25.2152 23.301 25.1394 23.5531 25.0551C23.7757 24.9806 24.0697 24.8655 24.3024 24.6739L23.031 23.13ZM13 24C10.3643 24 7.90027 23.8642 6.02347 23.6626C5.08313 23.5616 4.30635 23.4457 3.73618 23.3264C3.45001 23.2665 3.23329 23.2092 3.08174 23.1585C2.90065 23.0979 2.90307 23.0757 2.96904 23.13L1.69763 24.6739C1.93026 24.8655 2.22435 24.9806 2.44691 25.0551C2.699 25.1394 2.99791 25.2152 3.32632 25.2839C3.98532 25.4219 4.83354 25.5463 5.80986 25.6511C7.7664 25.8613 10.3024 26 13 26V24ZM2.96904 23.13C3.04948 23.1963 3.04205 23.2274 2.98136 23.1044C2.93078 23.0019 2.86813 22.8436 2.79925 22.6205C2.662 22.1759 2.52516 21.5573 2.40435 20.7945C2.16352 19.274 2 17.2679 2 15.1176H0C0 17.3596 0.169817 19.4711 0.428978 21.1074C0.558177 21.9231 0.712999 22.6428 0.888247 23.2104C0.975616 23.4934 1.07443 23.7597 1.18791 23.9896C1.29128 24.1991 1.45052 24.4704 1.69763 24.6739L2.96904 23.13ZM8.55987 6.36511C9.922 6.2834 11.4314 6.23529 13 6.23529V4.23529C11.3916 4.23529 9.84228 4.28459 8.44013 4.36869L8.55987 6.36511ZM13 6.23529C14.5686 6.23529 16.078 6.2834 17.4401 6.36511L17.5599 4.36869C16.1577 4.28459 14.6084 4.23529 13 4.23529V6.23529ZM24.3024 5.5614C24.0477 5.35163 23.7102 5.23983 23.4964 5.17598C23.2362 5.0983 22.9297 5.02961 22.6094 4.96845C21.9658 4.84558 21.1888 4.73869 20.4511 4.6512C19.7098 4.56327 18.9917 4.493 18.4601 4.44479C18.194 4.42065 17.9737 4.40196 17.8197 4.38928C17.7426 4.38294 17.6821 4.37809 17.6406 4.37482C17.6198 4.37318 17.6038 4.37194 17.5929 4.37109C17.5875 4.37067 17.5833 4.37035 17.5804 4.37013C17.5789 4.37002 17.5778 4.36993 17.577 4.36987C17.5766 4.36984 17.5763 4.36982 17.5761 4.3698C17.576 4.36979 17.5759 4.36978 17.5758 4.36978C17.5757 4.36977 17.5757 4.36977 17.5 5.3669C17.4243 6.36403 17.4243 6.36403 17.4243 6.36403C17.4243 6.36403 17.4243 6.36403 17.4244 6.36404C17.4245 6.36405 17.4247 6.36406 17.425 6.36408C17.4255 6.36412 17.4264 6.36419 17.4276 6.36428C17.43 6.36447 17.4337 6.36475 17.4387 6.36514C17.4486 6.3659 17.4636 6.36707 17.4833 6.36862C17.5227 6.37173 17.5809 6.37639 17.6556 6.38254C17.8049 6.39483 18.0196 6.41304 18.2795 6.43661C18.7999 6.48382 19.4985 6.55222 20.2155 6.63727C20.9362 6.72276 21.6592 6.82317 22.2343 6.93297C22.5234 6.98815 22.756 7.04215 22.9242 7.09237C23.1387 7.15644 23.119 7.17778 23.031 7.10526L24.3024 5.5614ZM2.96904 7.10526C2.88098 7.17778 2.86128 7.15644 3.07582 7.09237C3.24404 7.04215 3.47661 6.98815 3.76565 6.93297C4.3408 6.82317 5.06376 6.72276 5.78446 6.63727C6.50149 6.55222 7.20007 6.48382 7.72054 6.43661C7.98041 6.41304 8.19507 6.39483 8.3444 6.38254C8.41905 6.37639 8.47733 6.37173 8.51673 6.36862C8.53642 6.36707 8.55139 6.3659 8.56132 6.36514C8.56629 6.36475 8.56999 6.36447 8.5724 6.36428C8.5736 6.36419 8.57448 6.36412 8.57503 6.36408C8.5753 6.36406 8.57549 6.36405 8.5756 6.36404C8.57565 6.36403 8.57567 6.36403 8.5757 6.36403C8.5757 6.36403 8.57568 6.36403 8.5 5.3669C8.42432 4.36977 8.42426 4.36977 8.42417 4.36978C8.42412 4.36978 8.42401 4.36979 8.4239 4.3698C8.42367 4.36982 8.42336 4.36984 8.42297 4.36987C8.42218 4.36993 8.42107 4.37002 8.41962 4.37013C8.41674 4.37035 8.41254 4.37067 8.40708 4.37109C8.39616 4.37194 8.38016 4.37318 8.35941 4.37482C8.31791 4.37809 8.25738 4.38294 8.18034 4.38928C8.02628 4.40196 7.80604 4.42065 7.53988 4.44479C7.00827 4.493 6.29018 4.56327 5.54888 4.6512C4.81124 4.73869 4.0342 4.84558 3.3906 4.96845C3.07027 5.02961 2.76377 5.0983 2.5036 5.17598C2.28976 5.23983 1.95235 5.35163 1.69763 5.5614L2.96904 7.10526ZM2 15.1176C2 14.1613 2.03236 13.2319 2.08975 12.3598L0.0940668 12.2285C0.0338397 13.1437 0 14.1169 0 15.1176H2ZM2.08975 12.3598C2.19015 10.8342 2.36613 9.4994 2.5739 8.5102C2.67825 8.0134 2.78594 7.62645 2.88694 7.35478C3.00878 7.02705 3.06393 7.02712 2.96904 7.10526L1.69763 5.5614C1.34367 5.8529 1.13975 6.31504 1.0123 6.65784C0.864015 7.0567 0.732204 7.54874 0.616608 8.09909C0.38449 9.20421 0.198828 10.6365 0.0940668 12.2285L2.08975 12.3598ZM23.031 7.10526C22.9361 7.02712 22.9912 7.02705 23.1131 7.35479C23.2141 7.62645 23.3218 8.0134 23.4261 8.5102C23.6339 9.49941 23.8099 10.8342 23.9103 12.3598L25.9059 12.2285C25.8012 10.6365 25.6155 9.20421 25.3834 8.09909C25.2678 7.54874 25.136 7.0567 24.9877 6.65784C24.8603 6.31504 24.6563 5.8529 24.3024 5.5614L23.031 7.10526ZM23.9103 12.3598C23.9677 13.2319 24 14.1613 24 15.1176H26C26 14.1169 25.9662 13.1437 25.9059 12.2285L23.9103 12.3598ZM18.5 3.82353C18.5 3.0266 18.302 2.33238 17.9089 1.75945C17.5196 1.19201 16.9869 0.812983 16.4281 0.560654C15.3486 0.0731878 14.0352 0 13 0V2C14.0088 2 14.9455 2.08561 15.605 2.38342C15.9157 2.52373 16.1246 2.69396 16.2597 2.89087C16.391 3.08229 16.5 3.36749 16.5 3.82353H18.5ZM13 0C11.9648 0 10.6514 0.0731878 9.57193 0.560654C9.01315 0.812983 8.48036 1.19201 8.09108 1.75945C7.69803 2.33238 7.5 3.0266 7.5 3.82353H9.5C9.5 3.36749 9.60897 3.08229 9.74029 2.89087C9.87537 2.69396 10.0843 2.52373 10.395 2.38342C11.0545 2.08561 11.9912 2 13 2V0ZM7.5 3.82353V5.3669H9.5V3.82353H7.5ZM16.5 3.82353V5.3669H18.5V3.82353H16.5Z"
    fill="black"
  />
    </svg>
