<svg width="20" height="20" viewBox="0 0 20 20" fill="none" xmlns="http://www.w3.org/2000/svg">
    <path d="M13.8571 11.2857H14.8571V11.2857L13.8571 11.2857ZM18.5986 12.6658L19.4419 13.2033L19.4419 13.2033L18.5986 12.6658ZM15.715 18.207C16.1679 17.8911 16.279 17.2677 15.963 16.8147C15.6471 16.3618 15.0237 16.2507 14.5708 16.5666L15.715 18.207ZM9.99997 12.8571C8.42201 12.8571 7.14282 11.5779 7.14282 9.99997H5.14282C5.14282 12.6825 7.31744 14.8571 9.99997 14.8571V12.8571ZM12.8571 9.99997C12.8571 11.5779 11.5779 12.8571 9.99997 12.8571V14.8571C12.6825 14.8571 14.8571 12.6825 14.8571 9.99997H12.8571ZM9.99997 7.14282C11.5779 7.14282 12.8571 8.42201 12.8571 9.99997H14.8571C14.8571 7.31744 12.6825 5.14282 9.99997 5.14282V7.14282ZM9.99997 5.14282C7.31744 5.14282 5.14282 7.31744 5.14282 9.99997H7.14282C7.14282 8.42201 8.42201 7.14282 9.99997 7.14282V5.14282ZM12.8571 9.99999L12.8571 11.2857L14.8571 11.2857L14.8571 9.99994L12.8571 9.99999ZM20 11.2857V10H18V11.2857H20ZM0 10C0 15.5228 4.47715 20 10 20V18C5.58172 18 2 14.4183 2 10H0ZM20 10C20 4.47715 15.5228 0 10 0V2C14.4183 2 18 5.58172 18 10H20ZM16.4286 14.8571C17.6967 14.8571 18.8096 14.1955 19.4419 13.2033L17.7553 12.1284C17.4747 12.5687 16.985 12.8571 16.4286 12.8571V14.8571ZM19.4419 13.2033C19.7953 12.6487 20 11.9896 20 11.2857H18C18 11.5976 17.9102 11.8854 17.7553 12.1284L19.4419 13.2033ZM10 0C4.47715 0 0 4.47715 0 10H2C2 5.58172 5.58172 2 10 2V0ZM12.8571 11.2857C12.8571 13.2582 14.4561 14.8571 16.4286 14.8571V12.8571C15.5607 12.8571 14.8571 12.1536 14.8571 11.2857H12.8571ZM10 20C12.1233 20 14.0948 19.3371 15.715 18.207L14.5708 16.5666C13.2753 17.4702 11.701 18 10 18V20Z" fill="black"/>
    </svg>
    