<svg width="24" height="24" viewBox="0 0 24 24" fill="none" xmlns="http://www.w3.org/2000/svg">
    <path d="M20.5 20C19.9477 20 19.5 20.4477 19.5 21C19.5 21.5523 19.9477 22 20.5 22V20ZM19.1949 13.8109C18.6532 13.7033 18.1268 14.0551 18.0192 14.5968C17.9115 15.1385 18.2634 15.6649 18.8051 15.7726L19.1949 13.8109ZM15 10C14.4477 10 14 10.4477 14 11C14 11.5523 14.4477 12 15 12V10ZM15 2C14.4477 2 14 2.44772 14 3C14 3.55228 14.4477 4 15 4V2ZM22 18.5C22 19.3284 21.3284 20 20.5 20V22C22.433 22 24 20.433 24 18.5H22ZM18.8051 15.7726C19.7609 15.9625 20.584 16.2666 21.1498 16.7117C21.672 17.1225 22 17.6666 22 18.5H24C24 17.006 23.3521 15.8995 22.3864 15.1398C21.4643 14.4144 20.2873 14.028 19.1949 13.8109L18.8051 15.7726ZM18 7C18 8.65685 16.6569 10 15 10V12C17.7614 12 20 9.76142 20 7H18ZM15 4C16.6569 4 18 5.34315 18 7H20C20 4.23858 17.7614 2 15 2V4ZM3.5 22.0001H14.5V20.0001H3.5V22.0001ZM9 13.5001C8.02697 13.5001 5.8857 13.4735 3.98042 14.0069C3.02256 14.275 2.03655 14.707 1.27858 15.4299C0.490866 16.1812 0 17.2012 0 18.5001H2C2 17.7587 2.25913 17.2585 2.65892 16.8772C3.08845 16.4675 3.72744 16.1546 4.51958 15.9328C6.1143 15.4864 7.97303 15.5001 9 15.5001V13.5001ZM9 15.5001C10.027 15.5001 11.8857 15.4864 13.4804 15.9328C14.2726 16.1546 14.9116 16.4675 15.3411 16.8772C15.7409 17.2585 16 17.7587 16 18.5001H18C18 17.2012 17.5091 16.1812 16.7214 15.4299C15.9634 14.707 14.9774 14.275 14.0196 14.0069C12.1143 13.4735 9.97303 13.5001 9 13.5001V15.5001ZM0 18.5001C0 20.4331 1.567 22.0001 3.5 22.0001V20.0001C2.67157 20.0001 2 19.3285 2 18.5001H0ZM16 18.5001C16 19.3285 15.3284 20.0001 14.5 20.0001V22.0001C16.433 22.0001 18 20.4331 18 18.5001H16ZM12 7C12 8.65685 10.6569 10 9 10V12C11.7614 12 14 9.76142 14 7H12ZM9 10C7.34315 10 6 8.65685 6 7H4C4 9.76142 6.23858 12 9 12V10ZM6 7C6 5.34315 7.34315 4 9 4V2C6.23858 2 4 4.23858 4 7H6ZM9 4C10.6569 4 12 5.34315 12 7H14C14 4.23858 11.7614 2 9 2V4Z" fill="black"/>
    </svg>
    