<svg width="20" height="20" viewBox="0 0 20 20" fill="none" xmlns="http://www.w3.org/2000/svg">
    <path d="M19 10.75C19.4142 10.75 19.75 10.4142 19.75 10C19.75 9.58579 19.4142 9.25 19 9.25V10.75ZM10.75 1C10.75 0.585786 10.4142 0.25 10 0.25C9.58579 0.25 9.25 0.585786 9.25 1H10.75ZM1 9.25C0.585786 9.25 0.25 9.58579 0.25 10C0.25 10.4142 0.585786 10.75 1 10.75V9.25ZM9.25 19C9.25 19.4142 9.58579 19.75 10 19.75C10.4142 19.75 10.75 19.4142 10.75 19H9.25ZM19 9.25C14.4437 9.25 10.75 5.55635 10.75 1H9.25C9.25 6.38478 13.6152 10.75 19 10.75V9.25ZM9.25 1C9.25 5.55635 5.55635 9.25 1 9.25V10.75C6.38478 10.75 10.75 6.38478 10.75 1H9.25ZM1 10.75C5.55635 10.75 9.25 14.4437 9.25 19H10.75C10.75 13.6152 6.38478 9.25 1 9.25V10.75ZM10.75 19C10.75 14.4437 14.4437 10.75 19 10.75V9.25C13.6152 9.25 9.25 13.6152 9.25 19H10.75Z" fill="black"/>
    </svg>
    