<svg width="207" height="41" viewBox="0 0 207 41" fill="none" xmlns="http://www.w3.org/2000/svg">
    <path d="M1.024 32.424C0.832 32.424 0.664 32.364 0.52 32.244C0.376 32.1 0.304 31.908 0.304 31.668V28.968C0.304 28.608 0.388 28.344 0.556 28.176C0.724 27.984 0.94 27.816 1.204 27.672L9.952 21.768L1.204 15.9C0.94 15.732 0.724 15.564 0.556 15.396C0.388 15.204 0.304 14.94 0.304 14.604V11.868C0.304 11.628 0.376 11.448 0.52 11.328C0.664 11.208 0.832 11.148 1.024 11.148C1.144 11.148 1.276 11.184 1.42 11.256C1.564 11.304 1.684 11.364 1.78 11.436L13.912 19.752C14.272 19.992 14.536 20.232 14.704 20.472C14.872 20.688 14.956 20.976 14.956 21.336V22.2C14.956 22.56 14.872 22.86 14.704 23.1C14.536 23.34 14.272 23.58 13.912 23.82L1.78 32.136C1.684 32.184 1.564 32.244 1.42 32.316C1.276 32.388 1.144 32.424 1.024 32.424ZM36.8952 33.36C34.6632 33.36 32.7672 32.976 31.2072 32.208C29.6712 31.416 28.4952 30.3 27.6792 28.86C26.8632 27.396 26.4072 25.644 26.3112 23.604C26.2872 22.62 26.2752 21.564 26.2752 20.436C26.2752 19.308 26.2872 18.228 26.3112 17.196C26.4072 15.18 26.8632 13.44 27.6792 11.976C28.5192 10.512 29.7072 9.396 31.2432 8.628C32.8032 7.836 34.6872 7.44 36.8952 7.44C38.5272 7.44 39.9912 7.656 41.2872 8.088C42.5832 8.52 43.6872 9.12 44.5992 9.888C45.5112 10.632 46.2192 11.508 46.7232 12.516C47.2272 13.524 47.4912 14.616 47.5152 15.792C47.5392 16.008 47.4672 16.188 47.2992 16.332C47.1552 16.476 46.9752 16.548 46.7592 16.548H43.3392C43.0752 16.548 42.8592 16.488 42.6912 16.368C42.5232 16.224 42.4032 15.996 42.3312 15.684C41.9472 14.1 41.2872 13.02 40.3512 12.444C39.4152 11.868 38.2512 11.58 36.8592 11.58C35.2512 11.58 33.9672 12.036 33.0072 12.948C32.0472 13.836 31.5312 15.312 31.4592 17.376C31.3872 19.344 31.3872 21.36 31.4592 23.424C31.5312 25.488 32.0472 26.976 33.0072 27.888C33.9672 28.776 35.2512 29.22 36.8592 29.22C38.2512 29.22 39.4152 28.932 40.3512 28.356C41.2872 27.756 41.9472 26.676 42.3312 25.116C42.4032 24.78 42.5232 24.552 42.6912 24.432C42.8592 24.312 43.0752 24.252 43.3392 24.252H46.7592C46.9752 24.252 47.1552 24.324 47.2992 24.468C47.4672 24.612 47.5392 24.792 47.5152 25.008C47.4912 26.184 47.2272 27.276 46.7232 28.284C46.2192 29.292 45.5112 30.18 44.5992 30.948C43.6872 31.692 42.5832 32.28 41.2872 32.712C39.9912 33.144 38.5272 33.36 36.8952 33.36ZM59.6326 33.36C57.7126 33.36 56.0926 33.024 54.7726 32.352C53.4766 31.68 52.4806 30.732 51.7846 29.508C51.1126 28.284 50.7286 26.856 50.6326 25.224C50.6086 24.792 50.5966 24.264 50.5966 23.64C50.5966 23.016 50.6086 22.488 50.6326 22.056C50.7286 20.4 51.1246 18.972 51.8206 17.772C52.5406 16.548 53.5486 15.6 54.8446 14.928C56.1646 14.256 57.7606 13.92 59.6326 13.92C61.5046 13.92 63.0886 14.256 64.3846 14.928C65.7046 15.6 66.7126 16.548 67.4086 17.772C68.1286 18.972 68.5366 20.4 68.6326 22.056C68.6566 22.488 68.6686 23.016 68.6686 23.64C68.6686 24.264 68.6566 24.792 68.6326 25.224C68.5366 26.856 68.1406 28.284 67.4446 29.508C66.7726 30.732 65.7766 31.68 64.4566 32.352C63.1606 33.024 61.5526 33.36 59.6326 33.36ZM59.6326 29.796C60.9046 29.796 61.8886 29.4 62.5846 28.608C63.2806 27.792 63.6646 26.604 63.7366 25.044C63.7606 24.684 63.7726 24.216 63.7726 23.64C63.7726 23.064 63.7606 22.596 63.7366 22.236C63.6646 20.7 63.2806 19.524 62.5846 18.708C61.8886 17.892 60.9046 17.484 59.6326 17.484C58.3606 17.484 57.3766 17.892 56.6806 18.708C55.9846 19.524 55.6006 20.7 55.5286 22.236C55.5046 22.596 55.4926 23.064 55.4926 23.64C55.4926 24.216 55.5046 24.684 55.5286 25.044C55.6006 26.604 55.9846 27.792 56.6806 28.608C57.3766 29.4 58.3606 29.796 59.6326 29.796ZM73.5213 33C73.2813 33 73.0773 32.916 72.9093 32.748C72.7413 32.58 72.6572 32.376 72.6572 32.136V15.144C72.6572 14.904 72.7413 14.7 72.9093 14.532C73.0773 14.364 73.2813 14.28 73.5213 14.28H76.3293C76.5693 14.28 76.7733 14.364 76.9413 14.532C77.1093 14.7 77.1933 14.904 77.1933 15.144V16.368C77.6973 15.696 78.3693 15.132 79.2093 14.676C80.0733 14.196 81.0933 13.944 82.2693 13.92C85.0053 13.872 86.9133 14.94 87.9933 17.124C88.5453 16.164 89.3373 15.396 90.3693 14.82C91.4253 14.22 92.5893 13.92 93.8613 13.92C95.1093 13.92 96.2373 14.208 97.2453 14.784C98.2773 15.36 99.0813 16.236 99.6573 17.412C100.257 18.564 100.557 20.028 100.557 21.804V32.136C100.557 32.376 100.473 32.58 100.305 32.748C100.137 32.916 99.9333 33 99.6933 33H96.7413C96.5013 33 96.2973 32.916 96.1293 32.748C95.9613 32.58 95.8773 32.376 95.8773 32.136V22.092C95.8773 21.012 95.7213 20.16 95.4093 19.536C95.0973 18.888 94.6773 18.432 94.1493 18.168C93.6213 17.904 93.0333 17.772 92.3853 17.772C91.8573 17.772 91.3293 17.904 90.8013 18.168C90.2733 18.432 89.8413 18.888 89.5053 19.536C89.1693 20.16 89.0013 21.012 89.0013 22.092V32.136C89.0013 32.376 88.9173 32.58 88.7493 32.748C88.5813 32.916 88.3773 33 88.1373 33H85.1853C84.9213 33 84.7053 32.916 84.5373 32.748C84.3933 32.58 84.3213 32.376 84.3213 32.136V22.092C84.3213 21.012 84.1533 20.16 83.8173 19.536C83.4813 18.888 83.0493 18.432 82.5213 18.168C81.9933 17.904 81.4293 17.772 80.8293 17.772C80.2773 17.772 79.7373 17.916 79.2093 18.204C78.6813 18.468 78.2493 18.912 77.9133 19.536C77.5773 20.16 77.4093 21.012 77.4093 22.092V32.136C77.4093 32.376 77.3253 32.58 77.1573 32.748C76.9893 32.916 76.7853 33 76.5453 33H73.5213ZM106.006 33C105.766 33 105.562 32.916 105.394 32.748C105.226 32.58 105.142 32.376 105.142 32.136V15.144C105.142 14.904 105.226 14.7 105.394 14.532C105.562 14.364 105.766 14.28 106.006 14.28H108.814C109.054 14.28 109.258 14.364 109.426 14.532C109.594 14.7 109.678 14.904 109.678 15.144V16.368C110.182 15.696 110.854 15.132 111.694 14.676C112.558 14.196 113.578 13.944 114.754 13.92C117.49 13.872 119.398 14.94 120.478 17.124C121.03 16.164 121.822 15.396 122.854 14.82C123.91 14.22 125.074 13.92 126.346 13.92C127.594 13.92 128.722 14.208 129.73 14.784C130.762 15.36 131.566 16.236 132.142 17.412C132.742 18.564 133.042 20.028 133.042 21.804V32.136C133.042 32.376 132.958 32.58 132.79 32.748C132.622 32.916 132.418 33 132.178 33H129.226C128.986 33 128.782 32.916 128.614 32.748C128.446 32.58 128.362 32.376 128.362 32.136V22.092C128.362 21.012 128.206 20.16 127.894 19.536C127.582 18.888 127.162 18.432 126.634 18.168C126.106 17.904 125.518 17.772 124.87 17.772C124.342 17.772 123.814 17.904 123.286 18.168C122.758 18.432 122.326 18.888 121.99 19.536C121.654 20.16 121.486 21.012 121.486 22.092V32.136C121.486 32.376 121.402 32.58 121.234 32.748C121.066 32.916 120.862 33 120.622 33H117.67C117.406 33 117.19 32.916 117.022 32.748C116.878 32.58 116.806 32.376 116.806 32.136V22.092C116.806 21.012 116.638 20.16 116.302 19.536C115.966 18.888 115.534 18.432 115.006 18.168C114.478 17.904 113.914 17.772 113.314 17.772C112.762 17.772 112.222 17.916 111.694 18.204C111.166 18.468 110.734 18.912 110.398 19.536C110.062 20.16 109.894 21.012 109.894 22.092V32.136C109.894 32.376 109.81 32.58 109.642 32.748C109.474 32.916 109.27 33 109.03 33H106.006ZM143.062 33.36C141.814 33.36 140.686 33.12 139.678 32.64C138.67 32.136 137.866 31.476 137.266 30.66C136.69 29.82 136.402 28.884 136.402 27.852C136.402 26.172 137.074 24.84 138.418 23.856C139.786 22.848 141.586 22.176 143.818 21.84L148.75 21.12V20.364C148.75 19.356 148.498 18.576 147.994 18.024C147.49 17.472 146.626 17.196 145.402 17.196C144.538 17.196 143.83 17.376 143.278 17.736C142.75 18.072 142.354 18.528 142.09 19.104C141.898 19.416 141.622 19.572 141.262 19.572H138.418C138.154 19.572 137.95 19.5 137.806 19.356C137.686 19.212 137.626 19.02 137.626 18.78C137.65 18.396 137.806 17.928 138.094 17.376C138.382 16.824 138.838 16.296 139.462 15.792C140.086 15.264 140.89 14.82 141.874 14.46C142.858 14.1 144.046 13.92 145.438 13.92C146.95 13.92 148.222 14.112 149.254 14.496C150.31 14.856 151.15 15.348 151.774 15.972C152.398 16.596 152.854 17.328 153.142 18.168C153.43 19.008 153.574 19.896 153.574 20.832V32.136C153.574 32.376 153.49 32.58 153.322 32.748C153.154 32.916 152.95 33 152.71 33H149.794C149.53 33 149.314 32.916 149.146 32.748C149.002 32.58 148.93 32.376 148.93 32.136V30.732C148.618 31.188 148.198 31.62 147.67 32.028C147.142 32.412 146.494 32.736 145.726 33C144.982 33.24 144.094 33.36 143.062 33.36ZM144.286 29.94C145.126 29.94 145.882 29.76 146.554 29.4C147.25 29.04 147.79 28.488 148.174 27.744C148.582 26.976 148.786 26.016 148.786 24.864V24.108L145.186 24.684C143.77 24.9 142.714 25.248 142.018 25.728C141.322 26.208 140.974 26.796 140.974 27.492C140.974 28.02 141.13 28.476 141.442 28.86C141.778 29.22 142.198 29.496 142.702 29.688C143.206 29.856 143.734 29.94 144.286 29.94ZM159.056 33C158.816 33 158.612 32.916 158.444 32.748C158.276 32.58 158.192 32.376 158.192 32.136V15.144C158.192 14.904 158.276 14.7 158.444 14.532C158.612 14.364 158.816 14.28 159.056 14.28H162.008C162.248 14.28 162.452 14.364 162.62 14.532C162.788 14.7 162.872 14.904 162.872 15.144V16.62C163.496 15.852 164.288 15.216 165.248 14.712C166.232 14.184 167.444 13.92 168.884 13.92C170.348 13.92 171.62 14.256 172.7 14.928C173.78 15.576 174.608 16.5 175.184 17.7C175.784 18.9 176.084 20.34 176.084 22.02V32.136C176.084 32.376 176 32.58 175.832 32.748C175.664 32.916 175.46 33 175.22 33H172.052C171.812 33 171.608 32.916 171.44 32.748C171.272 32.58 171.188 32.376 171.188 32.136V22.236C171.188 20.844 170.84 19.752 170.144 18.96C169.472 18.168 168.488 17.772 167.192 17.772C165.944 17.772 164.948 18.168 164.204 18.96C163.46 19.752 163.088 20.844 163.088 22.236V32.136C163.088 32.376 163.004 32.58 162.836 32.748C162.668 32.916 162.464 33 162.224 33H159.056ZM187.605 33.36C186.357 33.36 185.253 33.156 184.293 32.748C183.357 32.316 182.577 31.716 181.953 30.948C181.329 30.18 180.849 29.28 180.513 28.248C180.177 27.192 179.985 26.04 179.937 24.792C179.913 24.36 179.901 23.976 179.901 23.64C179.901 23.28 179.913 22.884 179.937 22.452C179.985 21.252 180.165 20.136 180.477 19.104C180.813 18.072 181.293 17.172 181.917 16.404C182.565 15.612 183.357 15 184.293 14.568C185.253 14.136 186.357 13.92 187.605 13.92C188.901 13.92 189.993 14.148 190.881 14.604C191.793 15.036 192.549 15.6 193.149 16.296V8.304C193.149 8.064 193.221 7.86 193.365 7.692C193.533 7.524 193.749 7.44 194.013 7.44H197.073C197.313 7.44 197.517 7.524 197.685 7.692C197.853 7.86 197.937 8.064 197.937 8.304V32.136C197.937 32.376 197.853 32.58 197.685 32.748C197.517 32.916 197.313 33 197.073 33H194.229C193.965 33 193.749 32.916 193.581 32.748C193.437 32.58 193.365 32.376 193.365 32.136V30.804C192.765 31.548 191.997 32.16 191.061 32.64C190.149 33.12 188.997 33.36 187.605 33.36ZM188.937 29.508C189.945 29.508 190.749 29.28 191.349 28.824C191.949 28.368 192.393 27.792 192.681 27.096C192.969 26.376 193.125 25.644 193.149 24.9C193.173 24.468 193.185 24.012 193.185 23.532C193.185 23.028 193.173 22.56 193.149 22.128C193.125 21.408 192.957 20.724 192.645 20.076C192.333 19.404 191.877 18.852 191.277 18.42C190.677 17.988 189.897 17.772 188.937 17.772C187.929 17.772 187.125 18 186.525 18.456C185.949 18.888 185.529 19.464 185.265 20.184C185.001 20.904 184.845 21.696 184.797 22.56C184.773 23.28 184.773 24 184.797 24.72C184.845 25.584 185.001 26.376 185.265 27.096C185.529 27.816 185.949 28.404 186.525 28.86C187.125 29.292 187.929 29.508 188.937 29.508ZM203.671 40.488C203.431 40.488 203.227 40.404 203.059 40.236C202.891 40.068 202.807 39.864 202.807 39.624V1.608C202.807 1.368 202.891 1.164 203.059 0.995998C203.227 0.827999 203.431 0.743999 203.671 0.743999H206.011C206.251 0.743999 206.455 0.827999 206.623 0.995998C206.791 1.164 206.875 1.368 206.875 1.608V39.624C206.875 39.864 206.791 40.068 206.623 40.236C206.455 40.404 206.251 40.488 206.011 40.488H203.671Z" fill="#0047FF"/>
    </svg>
    