<svg width="243" height="191" viewBox="0 0 243 191" fill="none" xmlns="http://www.w3.org/2000/svg">
<path d="M94.6316 165.045C92.1196 165.331 89.6076 165.862 87.0551 165.903C80.8968 166.066 74.941 164.882 69.1067 163.044C68.0128 161.165 66.1491 160.144 64.6095 158.715C57.3167 151.976 52.8599 143.766 53.2651 133.596C53.5892 125.591 56.8305 118.444 61.6518 112.072C62.7458 110.602 63.9612 109.213 65.2172 107.906C71.4161 101.494 78.6279 101.249 86.0828 104.271C90.2154 105.946 93.4971 108.927 96.6979 111.95C97.9539 113.175 99.0478 114.564 100.628 115.462C101.641 116.075 102.735 116.524 103.829 115.626C104.882 114.768 105.044 113.543 104.679 112.277C104.112 110.275 102.856 108.642 101.803 106.926C100.79 105.252 99.615 103.659 98.7237 101.902C97.5082 99.4928 97.6297 97.2464 99.0073 94.9184C100.547 92.3045 102.735 90.4665 105.287 88.9554C110.23 86.0555 115.497 83.9726 121.169 83.1965C126.436 82.4614 131.015 84.1768 135.228 87.1991C136.93 88.4244 138.591 89.6905 140.293 90.9158C141.062 91.4876 141.873 91.9777 142.805 92.2228C144.911 92.8354 146.775 91.2426 146.573 89.037C146.492 88.016 146.127 86.9949 145.56 86.1781C140.981 79.6024 143.737 72.2099 147.748 67.6355C151.151 63.7146 155.527 61.5908 160.551 60.8556C168.208 59.7529 175.136 61.5908 181.173 66.5736C183.847 68.7791 185.711 71.5972 186.926 74.8238C187.412 76.1716 187.696 77.5603 188.223 78.9081C188.628 79.9291 189.236 80.991 190.532 80.8277C191.869 80.7051 192.436 79.6432 192.72 78.4588C193.004 77.1927 192.963 75.8857 192.801 74.5788C192.355 70.7395 193.247 69.1058 196.812 67.5947C200.296 66.0835 203.862 64.8174 206.495 61.8767C207.751 60.488 208.44 58.936 208.602 57.1389C208.805 55.0151 207.954 53.2589 206.212 52.0336C203.781 50.3182 201.431 51.4618 201.269 54.4433C201.107 56.9756 200.337 59.2219 198.473 61.019C195.435 63.9597 191.829 64.0414 188.101 62.8161C186.359 62.2443 184.86 61.1415 183.361 60.0796C178.256 56.4446 172.584 54.1574 166.425 53.1364C157.552 51.666 149.976 54.0349 144.304 61.3866C143.574 62.3668 142.724 63.2653 142.035 64.2456C137.416 70.7804 131.096 73.1901 123.357 72.3324C122.709 72.169 122.02 72.0874 121.372 71.924C117.037 70.7804 113.795 68.4932 112.58 63.8371C110.797 57.0573 110.554 50.2774 113.066 43.62C114.646 39.4132 117.928 36.8401 121.98 36.7585C125.869 36.6359 130.65 39.5766 132.149 43.0891C133.081 45.2129 132.919 47.2142 131.298 48.9704C130.934 49.3788 130.528 49.7464 130.245 50.1957C129.516 51.4618 129.151 52.7688 130.245 53.9532C131.096 54.8926 132.959 54.8926 134.134 53.8307C137.011 51.3393 138.591 48.1944 138.145 44.2735C137.74 40.7202 135.998 37.8612 133.243 35.6557C129.475 32.6742 125.14 31.163 120.359 30.7954C116.834 30.5095 115.659 29.5293 115.092 26.0985C114.079 20.3397 110.392 16.5005 105.935 13.2331C104.477 12.1303 103.099 12.4162 102.127 13.6007C101.155 14.7851 101.236 16.0921 102.613 17.399C104.558 19.2778 106.705 20.9524 107.961 23.4438C110.797 29.1209 110.635 35.0022 108.934 40.9244C107.313 46.5607 104.396 51.5435 100.506 55.8728C100.425 55.9545 100.304 56.077 100.223 56.1587C99.534 56.9756 98.359 57.8333 98.8047 58.8952C99.2909 60.0796 100.709 59.5487 101.722 59.4261C103.18 59.2219 103.869 59.712 103.991 61.1824C104.193 63.347 105.287 65.1441 106.341 66.982C107.191 68.4524 108.002 69.9227 108.407 71.5972C108.812 73.3535 108.731 74.9463 107.718 76.4984C106.989 77.3561 105.976 77.7236 105.004 78.2137C101.074 80.2967 97.6702 82.9107 94.7531 86.3414C89.4456 92.5904 83.2062 97.3689 74.7384 98.3492C69.3498 98.9618 64.1233 98.4309 59.0588 96.3887C58.127 96.0211 57.1951 95.6127 56.1822 95.4902C53.9133 95.2451 52.5763 96.7972 53.5082 98.8393C55.2909 102.883 54.6426 106.599 52.2522 110.03C48.6868 115.176 46.4585 121.099 42.8526 126.204C40.5027 129.512 37.545 131.881 33.2504 131.513C30.6979 131.268 28.2264 130.656 25.7955 129.675C22.5947 128.409 19.5561 126.735 16.4769 125.183C15.4235 124.652 14.4511 124.488 13.3977 125.019C6.51002 119.179 2.70155 111.582 1.36453 102.719C-0.0535134 92.6312 2.0533 83.3191 8.53581 75.1506C8.69787 74.9463 8.69787 74.6604 8.7789 74.3745C9.62973 74.4154 9.62973 75.1506 9.79179 75.6815C11.615 80.9094 14.4511 85.3204 19.6371 87.7709C20.8526 88.3427 21.3388 89.4863 21.6629 90.6708C22.1086 92.3045 22.1896 94.0199 22.2301 95.7352C22.3516 101.167 22.5542 106.599 24.661 111.746C24.8636 112.236 25.0257 112.767 25.3093 113.216C26.0386 114.237 26.9704 114.85 28.2669 114.441C29.6039 113.992 30.1712 112.971 29.9281 111.541C29.685 109.989 29.1988 108.478 28.7126 107.008C28.0644 105.047 27.7807 103.046 27.6592 101.004C27.3351 94.8775 30.0901 90.7524 35.9649 87.8526C40.1785 85.7696 43.9465 83.074 44.9594 78.0504C46.0533 72.7 44.1085 68.1665 40.5837 64.2456C38.5984 62.0401 36.4511 59.9571 34.7089 57.5065C32.7642 54.7292 32.1969 51.8294 33.8986 48.7254C34.3443 47.9085 34.6684 47.01 33.7771 46.3565C32.8452 45.6622 31.7918 45.9481 30.941 46.5607C28.3885 48.4395 27.7402 51.2168 27.9833 54.1574C28.2264 57.2206 29.4824 59.8346 31.7513 62.0401C34.5874 64.8174 37.4235 67.5947 39.0846 71.393C40.5432 74.783 39.7329 78.7447 36.8157 81.0727C32.3995 84.6669 22.9189 85.2795 17.4898 80.1334C11.9391 74.9055 9.5487 68.3298 8.65735 60.9782C8.61684 60.488 8.57632 60.0388 8.29271 59.6303C9.18406 58.4459 9.34612 57.0573 9.58921 55.6686C10.8857 49.1746 14.4106 43.8242 18.7458 39.0048C23.8912 33.2868 30.0091 28.835 36.6537 24.9958C39.6518 23.2804 42.2853 20.8707 45.162 18.8694C53.6297 13.0697 62.8673 8.94461 72.7126 6.249C73.8065 5.9631 74.8194 5.30962 75.9944 5.43215C75.8323 6.57574 74.7789 6.82079 74.0091 7.27006C70.4032 9.39388 68.7421 12.5796 68.7826 16.7047C68.7826 17.93 68.7826 19.1553 68.7826 20.3806C68.7421 23.6071 68.1343 24.2606 65.0146 24.2606C60.9631 24.2606 57.1141 24.9958 53.3461 26.507C52.8599 26.7112 52.3332 26.8745 51.8876 27.2013C51.0367 27.8548 50.4695 28.7125 50.7531 29.856C51.0772 30.9588 51.8876 31.4898 52.9815 31.694C54.0349 31.8573 54.9667 31.4489 55.8986 31.1222C61.1656 29.1617 66.5947 28.7125 72.0238 29.7744C77.2098 30.7954 81.6666 33.2051 84.6242 37.9021C85.313 39.0048 86.0017 40.0667 86.8931 41.0061C87.6629 41.8229 88.5947 42.1497 89.6481 41.537C90.7016 40.9244 90.9041 39.9033 90.4585 38.8823C88.8378 35.2881 87.1767 31.694 83.4087 29.7335C82.1933 29.1209 81.0993 28.304 79.8839 27.7322C75.8728 25.6901 74.2522 22.2593 74.1712 17.93C74.0901 13.1514 75.7513 9.18967 79.1951 5.92226C80.0054 5.14625 80.8968 4.61529 81.9097 4.20687C84.138 3.39001 86.5284 3.26748 88.8378 3.06327C95.8065 2.40979 102.816 2.24642 109.825 2.85906C112.985 3.14496 116.105 3.4717 119.184 4.12518C119.751 4.24771 120.4 4.20687 120.967 3.96181C126.679 1.38872 132.676 0.204286 138.956 0.0409153C149.814 -0.285826 160.105 1.96052 169.869 6.65742C168.086 7.63765 166.02 7.31091 164.156 7.43343C160.348 7.67849 157.026 8.98546 154.149 11.3135C149.854 14.826 145.276 15.1527 140.252 13.3556C138.105 12.5796 135.998 11.5994 133.648 11.4769C131.946 11.3952 130.853 12.0487 130.609 13.4781C130.285 15.1527 131.42 15.847 132.716 16.2146C135.674 16.9906 138.591 17.7258 141.427 18.8285C144.83 20.1355 147.545 22.2593 149.773 25.0775C152.002 27.9773 152.083 31.3672 151.637 34.798C151.556 35.4515 151.313 36.105 151.191 36.7993C151.029 37.7387 151.07 38.6372 152.002 39.1273C152.974 39.6174 153.663 39.0048 154.352 38.433C154.757 38.0654 155.081 37.6161 155.405 37.2077C157.552 34.5938 159.416 34.022 162.536 35.2881C165.939 36.6768 169.464 37.4936 173.11 37.7387C173.921 37.7795 174.731 37.7387 175.501 37.5753C176.473 37.3711 177.405 37.126 177.567 35.9416C177.729 34.7572 177.162 33.8178 176.149 33.2051C175.217 32.6334 174.123 32.5925 173.029 32.47C168.532 31.939 164.075 31.2447 160.632 27.7322C157.795 24.8324 157.107 21.3608 157.836 17.6033C158.444 14.4175 161.685 12.2529 165.574 11.8036C171.449 11.1093 177.121 12.2937 182.834 13.2331C183.361 13.3148 183.847 13.6007 184.414 13.4373C183.523 13.3148 183.118 12.8655 183.199 12.0078C191.586 15.3978 198.392 20.6256 202.241 29.1209C201.39 29.9377 200.337 29.6518 199.365 29.6518C197.217 29.611 195.07 29.6927 193.004 30.387C192.436 30.5912 191.829 30.7137 191.342 31.1222C190.33 31.8573 190.127 32.8784 190.411 34.022C190.694 35.1248 191.505 35.4923 192.558 35.4923C194.3 35.4923 196.042 35.5332 197.784 35.329C202.201 34.798 206.495 35.2064 210.668 36.7585C213.261 37.6978 215.409 39.2499 217.313 41.2511C217.637 41.6187 217.921 42.7215 218.812 41.8229C224.363 48.6437 227.604 56.5263 229.346 65.1033C229.022 67.8806 229.103 70.6579 228.657 73.4352C226.996 83.85 217.313 95.0001 207.184 96.3887C204.267 96.7972 201.552 96.3479 198.919 95.2043C197.946 94.7959 197.015 94.1424 195.961 93.9382C194.665 93.6931 193.53 93.9382 192.882 95.2451C192.234 96.5113 192.558 97.614 193.571 98.5534C195.678 100.473 198.311 101.126 200.945 101.617C204.267 102.229 207.67 101.984 210.952 101.249C214.963 100.35 216.746 101.167 218.731 104.843C221.486 110.03 227.482 112.603 232.79 110.929C234.492 110.398 235.342 109.009 234.937 107.539C234.532 106.15 232.993 105.497 231.25 106.028C226.51 107.498 221.891 103.577 222.458 98.5125C222.702 96.2254 223.512 94.1015 225.173 92.5087C228.617 89.2413 230.967 85.3612 231.899 80.6643C232.02 80.1334 232.182 79.6024 232.709 79.3165C236.072 83.5641 237.895 88.5878 239.516 93.6931C242.676 103.577 243.284 113.788 242.635 124.039C242.109 132.371 240.366 140.54 235.099 147.442C230.805 153.037 225.254 156.305 218.245 156.999C217.84 157.04 217.435 157.081 217.191 157.489C215.125 158.388 212.978 157.979 210.83 157.775C205.118 157.244 199.891 155.12 194.786 152.588C191.748 151.077 188.749 151.159 185.589 152.18C180.363 153.895 175.622 156.591 170.882 159.286C168.086 160.593 165.412 162.145 162.495 163.126C160.388 163.983 158.241 164.514 156.053 165.045C152.934 165.821 149.733 166.148 146.532 166.597C140.495 166.516 134.499 167.006 128.503 166.189C126.963 165.985 125.464 165.78 124.005 165.209C122.709 164.147 121.048 164.188 119.549 163.616C111.77 156.264 115.132 144.951 121.007 139.723C124.289 136.782 127.53 133.76 131.744 132.249C132.19 132.085 132.635 131.881 133.081 131.758C137.376 130.574 140.252 132.167 141.346 136.537C141.994 139.273 142.926 141.887 143.777 144.542C144.547 146.952 146.086 148.831 147.829 150.546C148.801 151.485 150.016 152.139 151.435 152.302C152.326 152.425 153.217 152.221 153.784 151.404C154.352 150.587 153.946 149.852 153.541 149.117C152.407 147.197 150.948 145.441 149.854 143.48C149.044 142.051 148.396 140.58 147.91 139.028C146.37 134.372 149.368 130.533 152.528 129.063C157.269 126.898 162.212 125.224 167.236 123.958C170.882 123.059 177.851 125.959 179.795 129.104C180.97 130.942 180.646 133.065 179.998 135.026C179.228 137.313 177.77 139.192 176.149 140.948C175.46 141.683 174.245 142.541 174.893 143.644C175.501 144.665 176.838 144.256 177.891 144.093C180.768 143.644 182.348 141.397 183.969 139.355C185.468 137.517 186.521 135.353 187.899 133.433C192.558 127.062 198.959 124.121 206.657 123.794C209.656 123.672 211.965 125.142 213.667 127.552C214.923 129.267 215.611 131.268 216.26 133.27C216.827 135.067 217.394 136.905 218.447 138.497C218.974 139.273 219.582 140.131 220.716 139.886C221.81 139.682 222.418 138.824 222.823 137.844C223.147 137.068 223.066 136.251 222.945 135.434C221.162 124.284 214.234 118.648 203.335 117.872C199 117.545 194.908 118.607 191.018 120.608C189.519 121.384 188.02 122.16 186.278 122.324C180.403 122.773 175.622 118.158 175.258 111.786C175.096 109.091 175.946 106.518 176.23 103.904C176.635 100.146 176.797 96.4296 175.42 92.8354C175.055 91.8552 174.609 90.9567 173.84 90.2623C173.029 89.5272 172.138 89.1187 171.044 89.6088C169.91 90.099 169.423 91.0383 169.464 92.2228C169.505 93.6114 169.869 94.9184 170.153 96.2254C171.814 104.271 169.586 111.092 163.63 116.565C158.16 121.629 151.637 123.182 144.709 120.323C140.333 118.525 137.214 115.013 135.917 110.275C135.147 107.539 134.377 104.884 131.42 103.7C130.245 103.25 129.029 102.883 128.016 103.863C127.044 104.761 127.287 105.987 127.49 107.13C127.571 107.62 127.814 108.029 128.016 108.437C131.096 113.788 130.164 118.975 127.085 123.835C123.357 129.798 118.212 133.433 110.878 133.841C100.385 134.413 91.3498 131.35 83.8949 123.835C82.8415 122.773 81.7071 122.446 80.4511 123.222C79.1546 123.998 78.871 125.264 79.3977 126.612C80.0459 128.369 81.4235 129.675 82.5984 131.023C84.7863 133.596 84.6647 135.639 82.0312 137.803C79.9244 139.559 78.1012 141.52 76.5616 143.766C76.0349 144.542 75.5487 145.359 75.5082 146.38C75.4677 147.646 75.9133 148.667 77.1288 149.157C78.3848 149.648 79.3572 149.157 80.127 148.096C80.6132 147.442 80.9778 146.707 81.4235 146.053C84.5837 141.479 89.1214 139.069 94.51 139.069C98.0349 139.069 101.6 140.131 104.477 142.5C105.368 143.235 106.138 144.134 106.3 145.359C107.313 152.547 106.867 159.001 99.3314 162.758C97.9539 163.575 96.3332 164.351 94.6316 165.045Z" fill="#DCE0EA"/>
<path d="M13.5195 125.101C14.0462 123.549 14.9781 123.917 16.072 124.448C20.0831 126.49 24.0131 128.777 28.3888 130.043C30.5766 130.697 32.805 131.268 35.1144 131.064C38.3961 130.778 40.5435 128.654 42.4072 126.163C44.9192 122.855 46.4182 118.975 48.5251 115.421C49.8216 113.216 51.2396 111.051 52.5361 108.846C54.2783 105.864 54.7645 102.76 53.2654 99.5336C52.6982 98.3491 52.131 97.083 53.3059 95.9803C54.3998 94.9592 55.6558 94.6733 57.2359 95.1634C60.2341 96.1436 63.1107 97.3689 66.3114 97.7773C75.549 99.0026 83.6521 96.838 90.4183 90.2623C92.8492 87.8934 95.037 85.3203 97.4275 82.9515C100.345 80.0925 103.95 78.1729 107.597 76.4575C108.083 75.9674 108.569 75.5181 109.218 75.273C113.796 73.4351 118.374 71.8423 123.398 72.0465C125.545 71.9239 127.693 72.169 129.84 71.8423C135.472 70.9846 139.24 67.4312 142.4 63.0611C144.993 59.5078 147.951 56.4037 151.921 54.4433C157.755 51.5843 163.792 51.8702 169.829 53.4222C175.096 54.7292 179.958 57.0164 184.374 60.2429C186.683 61.9583 189.155 63.1428 192.194 63.1428C196.893 63.1019 200.702 59.5486 200.661 54.7292C200.661 53.0546 200.985 51.6251 202.525 51.0533C204.146 50.4407 205.685 50.9308 207.022 52.1153C209.899 54.7292 209.899 58.9768 207.144 62.1625C204.794 64.8582 201.715 66.3285 198.514 67.6763C197.785 68.003 197.055 68.4115 196.286 68.6157C193.774 69.31 192.801 72.0056 193.247 74.497C193.571 76.2124 193.652 78.0095 192.963 79.7249C192.477 80.8685 191.626 81.7262 190.451 81.8079C189.276 81.8896 188.466 81.0319 187.98 80.0108C187.696 79.3981 187.453 78.7447 187.291 78.0912C185.144 69.2283 179.188 64.2047 170.801 61.9992C163.873 60.2021 157.148 61.0598 151.192 65.3483C146.654 68.6157 144.102 73.1084 143.656 78.7038C143.494 80.9502 144.183 83.1557 145.398 85.0753C146.087 86.178 146.695 87.2808 147.059 88.5469C147.464 89.9764 147.14 91.2425 146.046 92.2636C145.033 93.203 143.858 93.4889 142.521 92.9579C139.928 91.896 137.862 90.0172 135.634 88.3427C129.799 83.8908 123.52 82.6247 116.47 84.9528C111.729 86.5048 107.07 88.1793 103.059 91.3242C102.532 91.7326 102.006 92.1819 101.56 92.672C97.3869 97.2464 97.5895 99.411 100.345 103.863C101.722 106.109 103.181 108.315 104.518 110.561C105.409 112.031 105.976 113.665 105.044 115.381C104.315 116.728 103.262 117.341 101.682 116.81C99.9394 116.197 98.7645 114.931 97.5085 113.706C94.3078 110.561 91.1475 107.416 87.0555 105.497C78.8713 101.657 71.1733 102.107 64.7313 109.417C59.7074 115.095 56.223 121.507 54.4809 128.94C52.6577 136.782 54.5619 143.766 58.4109 150.546C60.8418 154.875 64.2046 158.143 68.1346 161.002C68.9855 161.614 69.2691 162.268 69.1475 163.248C68.3372 164.147 67.4459 163.738 66.5545 163.452C58.6945 160.879 53.1033 155.447 48.363 148.912C46.5803 146.421 45.0812 143.766 44.433 140.744C44.2304 139.764 43.8252 139.519 42.9744 139.559C32.1162 140.009 23.77 134.25 15.5048 128.287C14.4919 127.347 13.6411 126.449 13.5195 125.101Z" fill="#F1F1F1"/>
<path d="M94.6315 165.045C96.4952 163.943 98.2779 162.84 100.182 161.778C104.112 159.613 106.178 156.305 106.341 151.771C106.381 150.832 106.341 149.852 106.381 148.912C106.543 143.521 104.801 142.5 100.628 140.826C96.0495 138.988 91.5118 139.11 87.0956 141.683C84.5431 143.154 82.6794 145.196 81.2613 147.687C80.0864 149.77 78.4658 150.587 76.8451 149.729C75.1435 148.831 74.5357 146.544 75.6297 144.583C77.2098 141.765 79.3571 139.437 81.8691 137.436C84.4621 135.353 84.6241 133.719 82.3553 131.228C81.1803 129.921 79.8838 128.695 79.1545 127.062C78.3442 125.265 78.8709 123.549 80.4105 122.651C82.0311 121.711 83.3681 122.201 84.7052 123.753C87.7438 127.266 91.7549 129.349 95.928 131.146C99.7365 132.78 103.829 133.474 107.921 133.556C118.171 133.801 126.112 128.695 129.11 118.117C130.002 114.972 129.799 111.623 127.773 108.764C127.044 107.743 126.922 106.681 126.963 105.497C127.044 103.414 128.665 102.107 130.65 102.679C133.162 103.414 135.188 104.802 135.876 107.539C136.768 111.174 138.226 114.319 140.941 117.014C145.641 121.589 151.11 121.997 156.864 120.2C164.764 117.749 171.409 108.846 170.355 99.0844C170.153 97.2873 169.748 95.4903 169.383 93.6932C168.856 91.1609 169.464 89.5681 171.206 88.9146C172.867 88.3019 174.893 89.4864 175.825 91.6102C177.527 95.6128 177.567 99.7787 177 103.986C176.554 107.294 175.46 110.561 176.392 114.033C178.053 120.2 183.847 123.876 189.722 120.772C194.057 118.485 198.514 117.014 203.416 117.3C214.639 117.995 222.053 123.958 223.755 135.679C223.917 136.823 223.876 137.967 223.147 138.988C221.608 141.071 220.108 141.111 218.528 139.11C216.989 137.15 216.503 134.699 215.692 132.412C214.517 129.104 213.099 126 209.493 124.611C207.832 123.958 206.131 124.039 204.51 124.325C196.852 125.632 190.654 129.226 186.805 136.333C185.508 138.702 183.887 140.907 181.862 142.745C180.038 144.42 177.932 144.992 175.541 144.624C173.921 144.379 173.637 143.685 174.488 142.296C175.582 140.499 177.202 139.151 178.377 137.354C179.755 135.23 180.241 133.065 180.12 130.615C180.038 129.022 178.823 128.287 177.77 127.511C173.434 124.325 168.775 123.059 163.589 125.387C160.388 126.817 156.985 127.593 153.744 128.981C149.976 130.574 146.978 134.372 148.801 139.437C150.057 142.949 152.488 145.727 154.271 148.872C155.527 151.077 154.514 152.752 152.042 152.792C151.353 152.792 150.746 152.629 150.097 152.343C146.978 150.995 145.073 148.381 143.817 145.441C142.643 142.704 141.792 139.845 141.143 136.946C140.131 132.208 136.97 130.533 132.595 132.453C126.031 135.312 120.399 139.396 117.239 146.135C114.768 151.363 115.011 157.816 119.387 162.431C119.63 162.717 120.359 162.921 119.711 163.534C111.243 162.513 102.937 163.452 94.6315 165.045Z" fill="#F1F1F1"/>
<path d="M8.3739 59.7527C9.71092 60.7737 9.22473 62.3666 9.54886 63.6735C11.0479 69.8816 13.1953 75.6404 18.1382 80.0923C23.2026 84.6667 32.3187 84.3399 37.0185 80.5007C39.0848 78.8262 39.7735 74.211 38.7201 71.8421C36.8969 67.6761 33.6152 64.7355 30.5765 61.5906C27.0921 57.9964 26.3629 51.5024 29.0774 47.7449C30.0093 46.4379 31.1437 45.4169 32.9264 45.4577C34.547 45.4986 35.6815 46.8055 34.8306 48.1533C31.3868 53.7079 34.9117 57.3429 38.1934 61.0188C40.4623 63.5919 43.0553 65.8382 44.4734 69.1465C47.2689 75.7221 45.9319 81.8077 40.2192 86.0145C38.3555 87.4031 36.2892 88.3425 34.3444 89.5269C29.361 92.5085 27.4163 97.1237 28.3886 102.801C28.8343 105.496 29.6851 108.029 30.4144 110.643C31.0222 112.93 30.4144 114.441 28.5102 115.135C26.8085 115.748 25.2284 114.645 24.3776 112.562C22.3518 107.784 21.9872 102.76 21.7846 97.6546C21.7441 96.4294 21.8251 95.2041 21.7441 93.9788C21.501 91.2423 21.0148 88.9552 18.0166 87.444C13.2358 85.0343 10.7643 80.419 9.18421 75.3545C9.10318 75.0278 8.94112 74.7419 8.81957 74.456C7.80668 69.5549 7.6041 64.6538 8.3739 59.7527Z" fill="#F1F1F1"/>
<path d="M183.28 11.9671C183.766 12.5389 184.212 13.0698 185.022 14.0501C182.51 13.6825 180.363 13.3557 178.256 13.029C173.961 12.3347 169.626 11.722 165.25 12.4164C162.455 12.8656 159.74 13.8867 158.727 16.8274C157.552 20.2581 157.998 23.6481 160.348 26.5888C162.86 29.7336 166.385 30.8772 170.193 31.6124C172.3 31.98 174.488 31.6941 176.514 32.6743C177.77 33.287 178.215 34.4305 178.418 35.615C178.539 36.3502 178.337 37.3304 177.486 37.698C176.23 38.1881 174.893 38.5557 173.556 38.4331C169.585 38.1064 165.736 37.3712 162.049 35.7784C159.254 34.5531 157.593 35.2474 155.77 37.7388C155.324 38.3514 154.878 38.9232 154.311 39.4134C153.582 40.026 152.731 40.5569 151.718 39.9443C150.665 39.2908 150.259 38.3106 150.584 37.167C150.989 35.5741 151.313 34.0221 151.394 32.3884C151.596 27.2014 148.72 23.8523 144.79 21.2792C141.143 18.9103 136.93 17.9301 132.716 16.9907C129.88 16.3781 129.232 14.6219 130.65 12.2121C131.339 11.0277 132.351 10.946 133.405 11.0686C135.026 11.2319 136.606 11.477 138.064 12.1713C144.506 15.3162 150.381 14.5402 155.81 9.80243C157.633 8.20957 159.943 7.51524 162.293 7.27019C164.845 7.02513 167.357 6.57586 169.95 6.82092C174.771 7.39272 179.228 9.18979 183.28 11.9671Z" fill="#F1F1F1"/>
<path d="M232.83 79.2349C232.02 84.5853 229.589 89.0371 225.7 92.7946C221.648 96.7155 222.418 103.128 226.996 105.619C228.211 106.273 229.427 106.518 230.602 105.701C232.02 104.721 233.519 104.966 234.735 105.864C235.707 106.559 235.99 107.784 235.626 109.132C235.14 110.806 233.843 111.256 232.466 111.541C226.753 112.889 220.311 109.867 218.042 104.476C216.786 101.494 214.841 100.881 211.56 101.617C205.725 102.883 199.972 102.883 194.584 99.8604C193.165 99.0844 191.707 98.1042 192.031 96.1437C192.436 93.5298 194.543 92.4679 196.974 93.5707C198.635 94.3058 200.175 95.286 201.998 95.6536C208.237 96.8789 213.423 94.51 217.961 90.63C225.011 84.6261 228.779 76.9069 228.738 67.5131C228.738 66.6554 228.819 65.7568 229.467 65.0625C231.655 69.5143 233.073 74.1704 232.83 79.2349Z" fill="#F1F1F1"/>
<path d="M170.801 158.919C175.865 155.406 181.335 152.752 187.25 151.036C189.924 150.26 192.558 150.669 195.07 151.935C199.162 153.977 203.335 155.774 207.873 156.673C210.992 157.285 214.153 157.285 217.313 157.408C217.07 159.001 216.665 160.512 215.854 161.9C214.315 162.676 212.694 162.39 211.073 162.186C206.576 161.655 202.16 160.593 197.906 159.041C196.245 158.47 194.583 157.898 192.841 157.612C192.112 157.489 191.342 157.367 190.613 157.53C189.316 157.816 187.655 157.816 187.372 159.45C187.129 160.961 188.547 161.614 189.641 162.268C194.259 164.882 199.405 165.699 204.469 166.883C206.374 167.332 208.318 167.618 210.223 168.068C210.911 168.231 211.722 168.272 212.046 169.129C211.316 170.641 210.344 171.988 209.21 173.214C207.873 173.867 206.576 173.295 205.28 173.132C195.394 171.866 186.237 168.435 177.769 163.166C176.108 162.145 174.326 161.329 172.583 160.389C171.895 160.062 171.084 159.817 170.801 158.919Z" fill="#DCE0EA"/>
<path d="M81.9911 4.24741C79.3576 6.49375 76.7646 8.78094 75.6706 12.2117C74.3336 16.5002 74.05 20.7887 76.8051 24.6279C78.4257 26.8742 81.0997 27.8953 83.4496 29.1206C87.6228 31.2852 89.446 35.2061 91.1881 39.1679C91.7148 40.3523 91.2287 41.5776 89.9322 42.2311C88.5546 42.9662 87.3797 42.5578 86.4883 41.4959C85.5565 40.434 84.8272 39.2087 84.0169 38.0243C80.5325 32.7556 75.306 30.5092 69.3097 29.9783C64.3668 29.529 59.5049 30.0191 54.9266 32.2246C53.0224 33.1232 50.8346 32.1021 50.2268 30.305C49.6191 28.5896 50.5915 27.0784 52.7793 26.1799C56.9524 24.5054 61.2471 23.6477 65.7443 23.811C67.5675 23.8927 68.3373 23.0759 68.2158 21.2379C68.1347 20.0127 68.2158 18.7874 68.1753 17.5621C67.8916 12.5385 69.9174 8.78094 74.3741 6.41207C74.9009 6.12617 75.4275 5.79943 75.9137 5.47269C77.98 4.94173 79.8843 4.08404 81.9911 4.24741Z" fill="#F1F1F1"/>
<path d="M146.856 165.944C149.976 165.413 153.136 164.923 156.256 164.392C158.16 164.759 159.659 165.984 161.239 167.046C170.599 173.418 180.971 177.625 191.505 181.505C193.004 182.076 194.543 182.689 196.042 183.179C196.691 183.383 197.379 183.547 197.582 184.323C195.718 186.079 193.449 187.182 191.018 188.039C186.197 187.754 181.659 186.242 177.203 184.527C168.046 181.055 159.295 176.767 151.192 171.171C149.368 169.865 147.302 168.558 146.856 165.944Z" fill="#F1F1F1"/>
<path d="M170.801 158.919C177.202 161.9 183.037 165.985 189.56 168.639C194.908 170.804 200.58 171.825 206.252 172.805C207.224 172.969 208.237 173.091 209.21 173.255C206.941 176.236 204.348 178.85 201.512 181.26C188.466 177.747 176.189 172.438 165.048 164.678C164.156 164.065 163.184 163.575 162.657 162.554C165.412 161.369 168.086 160.144 170.801 158.919Z" fill="#F1F1F1"/>
<path d="M146.857 165.944C149.126 169.824 152.894 171.866 156.54 174.031C165.453 179.299 174.772 183.67 184.739 186.447C186.846 187.019 189.074 187.1 191.059 188.081C186.967 189.551 182.794 190.286 178.418 189.959C171.571 188.897 165.615 185.548 159.619 182.403C153.501 179.218 147.951 175.133 142.562 170.804C141.103 169.62 139.523 168.517 137.7 167.945C134.378 166.924 132.312 168.517 132.474 172.07C132.514 172.52 132.636 173.01 132.19 173.377C129.07 171.049 126.558 168.109 124.087 165.127C125.951 164.474 127.693 165.372 129.476 165.576C134.378 166.107 139.28 165.903 144.183 165.903C145.115 165.903 146.006 165.903 146.857 165.944Z" fill="#DCE0EA"/>
<path d="M132.23 173.336C132.19 173.05 132.19 172.805 132.149 172.519C131.217 168.598 133.81 166.188 137.7 167.332C140.698 168.231 142.926 170.354 145.276 172.192C154.514 179.421 164.602 185.099 175.663 188.938C176.595 189.265 177.527 189.591 178.459 189.918C169.748 190.245 161.442 188.08 153.339 185.262C145.56 182.607 138.47 178.727 132.23 173.336Z" fill="#F1F1F1"/>
<path d="M162.698 162.554C166.101 164.596 169.261 166.965 172.705 168.925C181.213 173.745 190.167 177.502 199.567 180.157C200.296 180.361 201.269 180.198 201.552 181.26C200.337 182.403 199.121 183.547 197.622 184.323C190.735 181.709 183.807 179.177 177.04 176.236C171.166 173.704 165.696 170.436 160.307 167.006C158.97 166.148 157.593 165.249 156.256 164.392C158.403 163.779 160.551 163.166 162.698 162.554Z" fill="#DCE0EA"/>
<path d="M212.086 169.17C207.791 168.231 203.497 167.292 199.202 166.271C195.92 165.535 192.72 164.596 189.721 162.962C189.195 162.676 188.668 162.35 188.182 162.023C187.209 161.329 186.359 160.471 186.642 159.164C186.885 157.939 188.02 157.612 188.992 157.244C191.139 156.468 193.246 156.918 195.272 157.571C200.418 159.287 205.563 161.002 210.992 161.574C212.572 161.737 214.193 161.737 215.814 161.819C215.003 164.514 213.747 166.924 212.086 169.17Z" fill="#F1F1F1"/>
<path d="M218.934 41.7819C219.015 42.3537 219.136 42.9255 219.258 43.7424C217.597 42.1495 216.179 40.5975 214.517 39.3722C209.615 35.778 203.943 35.2879 198.149 35.8189C196.407 35.9823 194.665 35.9414 192.923 36.0639C191.342 36.1865 190.127 35.6555 189.803 33.8993C189.479 32.0205 190.37 30.5093 192.193 29.9784C194.665 29.2432 197.177 28.8756 199.729 29.0798C200.621 29.1207 201.471 29.0798 202.363 29.0798C205.523 29.9375 208.683 30.7952 211.398 32.7148C214.72 35.0837 217.191 38.1061 218.934 41.7819Z" fill="#F1F1F1"/>
<path d="M123.358 72.0057C119.873 72.7817 116.308 73.1493 112.945 74.4154C111.162 75.0689 109.339 75.7632 107.557 76.4576C108.975 73.3127 107.881 70.5354 106.301 67.8398C104.964 65.5526 103.424 63.3879 103.464 60.5698C103.464 59.7938 103.019 59.7529 102.371 59.8755C101.641 60.0388 100.912 60.1205 100.183 60.1205C99.4129 60.1205 98.4405 60.4064 97.9948 59.5079C97.5492 58.6502 98.2379 57.8742 98.6836 57.3024C100.669 54.6884 103.019 52.3196 104.68 49.4197C108.002 43.6609 110.15 37.6162 109.542 30.8772C109.137 26.1803 107.557 21.8918 103.505 18.992C102.897 18.5427 102.411 17.9709 101.884 17.4399C100.669 16.2147 100.547 14.826 101.479 13.4374C102.533 11.8445 103.991 11.4361 105.693 12.4571C108.569 14.1317 110.879 16.5414 112.824 19.237C114.485 21.5651 115.498 24.179 115.741 27.0788C115.903 29.0393 117.483 30.2237 119.792 30.3054C124.897 30.5096 129.557 32.1025 133.568 35.2882C139.199 39.7809 141.225 47.9903 134.945 53.9941C133.325 55.5461 131.015 55.7095 129.678 54.3617C128.544 53.2181 128.787 50.9718 130.205 49.3789C132.919 46.3565 133.041 44.7637 130.569 41.578C128.301 38.5556 125.1 37.0853 121.413 37.3712C117.321 37.6571 114.809 40.271 113.431 44.1102C111.041 50.9309 111.324 57.7516 113.391 64.5724C114.687 68.8608 118.01 70.4946 121.859 71.5156C122.345 71.679 122.871 71.8424 123.358 72.0057Z" fill="#F1F1F1"/>
<path d="M62.9887 78.4995C63.0292 77.4784 62.9887 76.8249 63.4749 76.2123C68.5799 69.7183 67.1213 63.2651 63.2723 56.812C61.6112 54.0347 59.4639 51.7884 56.4657 50.3997C54.6425 49.542 53.9942 47.9491 54.6425 46.3971C55.2907 44.8451 57.0329 44.1508 58.9371 44.7226C63.3128 46.0295 66.392 48.8477 68.5394 52.8094C68.9445 53.5854 69.3902 54.3614 69.7143 55.1783C71.1324 59.0175 74.2926 60.1203 77.8174 60.4062C80.5725 60.6512 83.3276 60.5695 86.0421 59.8752C87.7033 59.4259 88.9592 60.1611 89.6075 61.754C90.3368 63.5102 89.7696 65.0214 88.0274 65.7974C85.1103 67.1044 82.1121 68.0846 78.8708 67.7987C75.1839 67.4719 72.6314 69.5958 71.9832 73.5983C71.5375 76.294 70.16 78.4995 68.2152 80.3782C67.2834 81.2768 66.1489 81.6443 64.8929 80.9909C63.6775 80.4599 62.8267 79.6431 62.9887 78.4995Z" fill="#F1F1F1"/>
</svg>
