<svg width="246" height="150" viewBox="0 0 246 150" fill="none" xmlns="http://www.w3.org/2000/svg">
<path d="M115.294 149.068C104.914 139.368 95.4688 130.604 86.2793 122.095C129.674 81.9337 173.495 41.5168 216.89 1.52539C226.505 10.3746 235.949 19.0536 245.394 27.7326C228.972 42.8783 211.784 58.7047 194.341 74.7863C211.87 90.6978 228.802 106.099 245.479 121.245C235.609 130.264 226.164 138.943 216.124 148.132C200.042 132.987 183.365 117.245 166.517 101.419C148.819 117.841 131.972 133.497 115.294 149.068Z" fill="#DCE0EA"/>
<path d="M28.4195 147.111C19.0598 138.517 9.52988 129.838 0 121.074C43.5652 81.1679 87.4707 40.9212 131.036 0.929688C140.566 9.69378 150.011 18.3728 159.03 26.6263C115.805 66.5327 71.9846 106.95 28.4195 147.111Z" fill="#DCE0EA"/>
<path d="M0.935547 26.7964C9.52946 18.9683 18.9743 10.2043 28.4191 1.61035C40.2463 12.6718 52.3289 23.9885 64.1561 35.05C55.3069 43.0483 45.8621 51.7273 36.4174 60.4063C24.7603 49.3448 12.6777 37.8579 0.935547 26.7964Z" fill="#DCE0EA"/>
</svg>
