<svg width="150" height="206" viewBox="0 0 150 206" fill="none" xmlns="http://www.w3.org/2000/svg">
<path opacity="0.15" d="M41.3527 0C41.2385 2.19685 41.1242 4.41657 41.0328 6.61342C41.0099 7.04821 41.0328 7.483 41.0328 8.12375C44.598 7.43724 48.0032 6.75072 51.4313 6.08709C50.9285 7.18551 50.4486 8.14663 50.0601 9.15352C49.6258 10.2977 49.8315 10.5494 51.0428 10.6639C53.4196 10.9156 55.7964 11.1673 58.1732 11.5106C59.5216 11.7165 60.8242 12.3115 62.1726 12.3801C66.1035 12.5174 70.0572 12.5632 74.0109 12.4946C77.7132 12.4259 81.3927 12.2657 85.0493 12.8378C86.7862 13.1124 87.5861 14.1193 88.0203 15.6754C88.5003 17.4146 89.3459 18.4443 90.8771 19.3139C92.3854 20.1606 93.551 21.3048 93.5967 23.1355C93.6424 24.9433 91.6998 26.5452 89.7572 26.6825C87.4947 26.8427 85.2093 27.0944 82.9468 27.3461C82.4897 27.3919 82.0783 27.5979 81.6212 27.6894C80.9356 27.8267 80.41 27.9411 80.5471 28.9022C80.6842 29.7947 81.027 30.0007 81.8726 30.0007C84.0438 30.0007 86.192 30.138 88.3631 30.1837C89.163 30.2066 89.3459 30.5956 89.3459 31.3508C89.323 34.3944 87.8603 36.6827 85.255 37.5981C83.9295 38.0558 82.7182 37.7125 81.4841 37.2319C80.9585 37.026 80.3414 36.8429 79.7929 36.8887C76.662 37.1633 73.531 37.5066 70.3771 37.804C69.6001 37.8727 69.0516 38.1244 68.5945 38.8109C67.589 40.367 66.0349 41.2595 64.298 41.5799C61.5555 42.1291 58.7674 42.4723 55.9792 42.7698C54.9508 42.8842 54.5394 43.1588 54.448 44.2115C53.9224 50.024 53.9452 55.8365 54.3337 61.6718C54.448 63.3424 54.4709 65.0358 54.4023 66.7063C54.3566 67.8505 54.7908 68.0793 55.8192 67.942C57.7847 67.7132 59.7501 67.553 61.7155 67.347C65.6007 66.9351 69.3716 67.6445 73.0968 68.5828C74.2394 68.8574 75.1079 68.7658 76.182 68.1937C80.3643 65.974 84.5237 63.6399 88.9345 61.9465C91.8598 60.8023 95.1507 60.4819 98.3046 60.07C106.669 58.9487 115.079 59.0631 123.49 59.3377C130.894 59.5665 138.322 59.8869 145.726 60.1615C147.052 60.2073 148.377 60.1615 150 60.1615C148.789 62.8389 147.669 65.0815 144.744 65.7909C142.824 66.2715 140.973 66.9351 139.099 67.5301C138.71 67.6445 138.367 67.8734 137.682 68.2395C138.779 68.8574 139.624 69.315 140.493 69.7956C139.99 71.5805 138.55 72.4044 136.996 72.8849C134.871 73.5485 132.654 74.0062 130.483 74.5554C128.837 74.9673 127.123 75.2648 125.546 75.8827C124.518 76.2946 123.695 77.2099 122.758 77.8965C122.781 78.0566 122.804 78.194 122.827 78.3541C123.764 78.8347 124.724 79.3381 125.843 79.9331C124.587 80.3679 123.444 80.8485 122.255 81.1688C117.41 82.5419 112.474 82.3817 107.538 81.8096C102.487 81.2146 97.4361 80.4823 92.3626 79.9789C91.197 79.8645 89.9858 80.4137 88.6374 80.7112C90.3971 84.0293 91.4713 87.2331 92.0426 90.5741C92.6368 94.0295 93.2539 97.485 93.5738 100.963C93.9852 105.403 94.0309 109.865 94.3737 114.305C94.4423 115.357 94.8993 116.433 95.4021 117.394C98.0989 122.68 100.064 128.218 101.436 133.962C102.213 137.211 102.464 140.598 103.31 143.825C103.881 146.022 105.001 148.104 106.029 150.164C106.623 151.353 107.446 152.429 108.292 153.459C110.28 155.884 110.806 158.882 111.56 161.766C112.245 164.329 112.634 166.983 113.411 169.523C113.845 170.942 114.759 172.223 115.536 173.528C116.519 175.153 117.639 176.709 118.576 178.356C120.336 181.491 121.913 184.741 123.695 187.876C125.318 190.714 127.169 193.414 128.814 196.251C129.409 197.281 129.774 198.494 130.14 199.638C130.414 200.485 130.186 201.034 129.317 201.675C127.603 202.934 126.118 204.535 124.541 206C120.587 206 116.611 206 112.657 206C112.2 203.574 111.765 201.126 111.263 198.723C111.194 198.425 110.646 198.014 110.349 198.036C109.297 198.105 108.246 198.357 107.195 198.517C104.315 198.998 101.573 197.83 100.476 195.542C100.064 194.695 99.7215 194.787 99.1045 195.153C96.362 196.869 93.3453 197.487 90.1457 197.03C89.7572 196.984 89.2316 196.641 89.0945 196.297C87.7918 193.437 86.5348 190.531 85.3236 187.624C84.7751 186.297 84.158 185.107 82.7868 184.398C80.7528 183.368 79.4273 181.606 78.3074 179.661C77.7589 178.7 77.1876 177.761 76.5934 176.823C75.3136 174.809 73.8509 172.91 71.7027 171.834C69.9429 170.942 68.8231 169.592 67.8175 167.99C65.7835 164.786 63.1096 162.498 59.2245 161.743C56.7334 161.262 54.3109 160.484 51.8655 159.775C50.6771 159.409 49.5573 158.768 48.3689 158.402C47.1119 158.013 45.8092 157.784 44.5294 157.486C44.4837 157.601 44.438 157.738 44.3923 157.852C44.8265 158.516 45.2836 159.157 45.6493 159.843C46.8148 162.063 48.3917 163.665 50.9514 164.26C52.4597 164.603 53.8995 165.244 54.7223 166.754C55.2707 167.761 55.9564 168.676 56.4591 169.706C57.8532 172.475 59.133 175.336 60.5957 178.082C61.3042 179.409 62.3554 180.53 63.2467 181.766C63.4067 181.697 63.5438 181.652 63.7038 181.583C63.5438 180.164 63.3839 178.723 63.201 177.098C64.3666 177.235 65.4636 177.327 66.5377 177.464C69.623 177.853 71.9998 179.249 73.2567 182.201C74.5594 185.267 74.9022 188.173 72.5026 191.034C69.7144 194.398 65.9435 195.679 62.3097 193.986C59.7501 192.796 57.9904 190.691 56.5506 188.288C56.162 187.647 55.5907 186.961 54.9508 186.617C50.8142 184.466 46.6548 182.292 42.404 180.37C39.9358 179.249 38.0389 177.738 36.8734 175.267C36.1421 173.734 35.2508 172.246 34.3595 170.782C32.8968 168.379 31.3885 166.068 28.8745 164.512C26.1549 162.841 23.5953 160.919 21.0814 158.951C20.2358 158.287 19.413 157.326 19.0474 156.342C18.5217 154.855 18.5217 153.207 18.1104 151.674C17.379 148.951 16.3278 146.433 13.9738 144.534C11.4142 142.383 8.46603 140.507 6.77485 137.371C6.72914 137.28 6.59201 137.234 6.5006 137.188C3.73528 135.884 2.75257 133.321 1.90697 130.667C0.375764 125.907 0.101517 120.941 0.0101019 115.998C-0.0584597 111.215 0.238641 106.41 0.398618 101.604C0.558595 97.2562 1.24421 93.0227 2.91254 88.9265C4.67229 84.5785 5.74642 80.0247 6.02067 75.3106C6.38633 68.8574 6.68343 62.3812 6.93482 55.9051C7.02624 53.6625 7.18621 51.5572 8.78599 49.7494C9.51731 48.9027 10.0201 47.8271 10.5 46.7974C11.1628 45.3557 10.9114 44.2344 9.70014 43.2275C8.99167 42.6325 8.14608 42.1977 7.30048 41.6256C7.71185 40.9391 8.03181 40.184 8.51174 39.589C10.5229 37.0489 12.5797 34.5545 14.5909 32.0373C16.2363 29.9778 17.6533 27.8267 16.5334 24.9662C16.5106 24.9433 16.5334 24.8976 16.5106 24.8518C16.2592 24.0738 16.5792 23.5932 17.2419 23.1584C19.5502 21.6938 21.8584 20.2064 24.0981 18.6274C28.3717 15.6296 31.9598 11.9911 33.9252 7.04821C34.6337 5.24039 35.7535 3.82159 37.1476 2.56299C38.1303 1.67052 39.1816 0.846701 40.21 0C40.5757 0 40.9642 0 41.3527 0ZM70.72 73.068C70.72 74.1893 70.7428 75.036 70.72 75.9056C70.6742 77.1413 70.4914 77.2557 69.3716 76.6607C64.9608 74.3266 60.2757 73.0909 55.3165 72.862C54.4023 72.8163 54.0138 72.9993 54.1052 74.0749C54.5394 78.194 54.8365 82.3359 55.3165 86.455C55.5907 88.7434 56.2078 90.8716 57.9446 92.7252C60.8928 95.8602 63.5895 99.2242 66.2406 102.588C69.5544 106.776 72.434 111.238 73.8509 116.501C74.3537 118.378 74.0795 119.064 72.274 119.728C71.6341 119.957 70.9713 120.186 70.3771 120.483C69.5773 120.895 68.9831 122.566 69.463 123.161C70.1943 124.076 70.9028 123.321 71.5427 122.955C73.5767 121.788 75.6107 121.81 77.3476 123.367C78.6045 124.511 79.633 125.907 80.7756 127.165C81.027 127.44 81.507 127.829 81.7355 127.76C82.9468 127.348 84.2037 126.982 85.255 126.273C86.3748 125.518 86.352 124.671 85.6207 123.527C85.2779 122.978 84.9351 122.428 84.5922 121.879C83.2896 119.751 81.5298 118.309 78.9245 118.126C78.6959 118.103 78.3074 117.623 78.3074 117.348C78.2617 115.7 79.2902 114.488 80.9585 113.938C81.9641 113.595 82.9696 113.229 83.8609 112.703C85.1407 111.97 85.5293 110.62 86.0092 109.316C87.8832 104.098 89.2316 98.7894 88.8431 93.16C88.6374 90.1164 87.9061 87.2331 86.4206 84.5557C83.7467 79.6814 79.4958 76.6836 74.5137 74.5554C73.371 74.0291 72.1597 73.6172 70.72 73.068ZM101.367 182.086C100.681 179.844 100.316 177.555 98.7845 175.77C96.8191 173.505 95.5621 170.919 94.5794 168.127C93.4824 165.015 92.4997 161.857 91.2427 158.814C90.2143 156.319 88.7974 154.077 86.3977 152.498C84.4094 151.193 82.4668 149.683 80.9356 147.898C79.4501 146.136 78.5131 143.893 77.3019 141.902C77.0962 141.559 76.5934 141.056 76.3191 141.102C72.9368 141.674 70.2857 143.253 68.9831 146.639C68.2746 148.447 68.4803 149.591 70.0115 150.758C71.337 151.788 72.7997 152.612 74.0795 153.665C75.3593 154.717 76.7534 155.793 77.599 157.143C79.1302 159.66 80.3643 162.383 81.5984 165.084C82.2383 166.48 83.1296 167.601 84.318 168.539C84.9122 168.997 85.5064 169.5 86.0549 170.004C88.1574 171.949 90.3057 173.825 90.9456 176.823C91.0142 177.166 91.4027 177.533 91.7226 177.738C94.4194 179.455 97.1162 181.148 99.8358 182.819C100.133 183.002 100.636 183.231 100.818 183.116C101.116 182.956 101.207 182.475 101.367 182.086ZM18.4532 121.216C18.6589 122.337 18.796 123.298 19.0245 124.213C19.573 126.502 20.4186 128.744 22.4297 130.094C24.3952 131.422 26.5206 132.52 28.646 133.573C29.5373 134.008 30.5657 134.191 31.5713 134.328C34.7708 134.763 37.9475 135.129 41.1471 135.541C41.9926 135.655 42.9982 136.159 43.6838 135.861C45.4436 135.106 47.1119 134.076 48.7345 133.046C49.0088 132.886 49.0773 132.245 49.0545 131.834C49.0545 131.651 48.6203 131.353 48.346 131.307C46.472 131.056 44.7123 130.529 42.9525 129.751C41.6727 129.179 40.1415 129.156 38.7474 128.859C37.6504 128.607 36.4849 128.538 35.7307 127.486C32.714 123.275 28.6917 120.163 24.5552 117.165C24.3038 116.982 23.7324 116.936 23.481 117.096C21.9727 118.08 20.4872 119.133 19.0245 120.209C18.7274 120.46 18.5903 120.941 18.4532 121.216ZM52.9397 107.439C52.9397 107.417 52.9397 107.394 52.9397 107.371C52.3455 107.439 51.7284 107.508 51.1342 107.554C49.9686 107.645 48.666 109.018 49.0088 110.117C49.5116 111.742 49.9458 113.435 51.637 114.488C52.9854 115.311 54.2652 116.341 55.3393 117.485C57.3962 119.637 57.2362 122.177 55.1336 124.259C54.7451 124.625 54.3566 124.968 53.9224 125.312C52.5283 126.387 52.3226 127.348 53.2139 128.882C53.351 129.11 53.6481 129.385 53.8538 129.362C56.0021 129.248 58.196 128.882 59.133 126.685C60.2757 124.007 61.9212 121.742 63.7952 119.591C64.2752 119.042 64.618 118.401 65.0065 117.806C65.8521 116.479 65.9892 115.151 65.3721 113.595C63.7495 109.568 61.0299 107.577 56.6648 107.462C55.4307 107.417 54.1738 107.439 52.9397 107.439ZM102.03 164.146C102.03 167.372 102.67 169.157 104.201 170.507C105.184 171.377 107.058 171.445 107.949 170.622C108.086 170.484 108.177 170.233 108.177 170.027C108.269 168.471 108.132 167.075 107.309 165.587C103.31 158.287 98.7388 151.262 96.522 143.07C95.6992 140.049 93.5967 137.806 90.3057 136.96C87.5404 136.25 86.1006 137.532 86.6948 140.369C86.7177 140.484 86.7405 140.598 86.7862 140.713C87.449 143.527 89.323 145.701 90.8313 148.058C90.9228 148.196 91.1285 148.31 91.2884 148.379C94.9908 149.98 97.4818 152.864 99.3101 156.342C100.659 158.859 102.921 161.148 102.03 164.146ZM47.3405 80.5739C47.4547 80.551 47.5461 80.5052 47.6604 80.4823C47.6833 80.3221 47.7518 80.1391 47.7518 79.9789C47.7747 77.2328 47.8204 74.4868 47.7975 71.7636C47.729 63.0449 48.3003 54.349 49.1002 45.6532C49.3059 43.5021 48.8031 42.9071 46.6777 42.4495C46.2663 42.3579 45.855 42.335 45.4436 42.2206C44.7808 42.0604 44.4837 42.1977 44.438 42.9758C44.2323 49.3604 43.821 55.7449 43.7753 62.1295C43.7524 67.3241 44.5523 72.4501 46.1063 77.4159C46.472 78.4914 46.9291 79.5212 47.3405 80.5739ZM31.6398 145.884C31.0228 145.999 30.2686 145.953 29.8344 146.296C28.486 147.326 28.0975 149.912 28.8288 151.445C29.743 153.299 31.457 154.351 32.9197 155.678C34.1309 156.777 35.525 157.761 36.3935 159.088C38.5189 162.338 40.3929 165.725 42.3355 169.088C42.6554 169.638 42.9068 169.889 43.5696 169.638C44.3009 169.34 45.1236 169.271 45.8778 169.02C46.2892 168.882 46.7691 168.562 46.9062 168.219C47.1119 167.647 46.9291 167.098 46.2663 166.708C44.4152 165.587 42.8382 164.123 41.8327 162.2C40.6443 159.912 39.7301 157.509 38.6103 155.175C37.399 152.658 36.1878 150.118 34.8394 147.669C34.2223 146.456 33.2168 145.587 31.6398 145.884ZM108.315 183.597C109.183 183.688 109.891 183.78 110.6 183.826C111.354 183.871 111.697 184.1 111.765 184.993C111.903 187.373 112.177 189.752 112.451 192.132C112.588 193.322 112.817 194.489 113.754 195.451C114.257 195.062 114.645 194.718 115.079 194.398C117.388 192.704 117.41 192.613 116.222 189.958C116.199 189.89 116.153 189.821 116.108 189.752C114.577 187.006 112.977 184.283 111.537 181.491C111.034 180.507 110.28 180.553 109.572 180.713C109.183 180.805 108.794 181.4 108.589 181.858C108.383 182.338 108.406 182.91 108.315 183.597ZM54.3794 17.323C55.4536 19.9776 59.1559 20.1606 60.4586 19.0851C60.7557 18.8563 61.0985 18.4215 61.0756 18.124C60.9156 16.4992 59.0188 15.1948 57.4647 15.7441C56.3906 16.1102 55.4307 16.7738 54.3794 17.323ZM87.9061 18.513C87.9061 18.3986 87.9061 18.2842 87.9061 18.1697C86.6034 17.8036 85.3236 17.3917 84.0209 17.0713C83.5638 16.9569 83.0382 17.0713 82.5354 17.0713C82.6725 17.6205 82.6725 18.2842 82.9925 18.719C83.2667 19.108 83.8381 19.3368 84.318 19.4512C85.6892 19.7945 86.7862 19.0851 87.9061 18.513Z" fill="#153271"/>
</svg>
