<svg width="193" height="192" viewBox="0 0 193 192" fill="none" xmlns="http://www.w3.org/2000/svg">
<path d="M95.8102 192C148.725 192 191.62 149.019 191.62 96C191.62 42.9807 148.725 0 95.8102 0C42.8957 0 0 42.9807 0 96C0 149.019 42.8957 192 95.8102 192Z" fill="#DCE0EA"/>
<path d="M124.498 111.979C128.422 116.967 132.367 121.955 136.29 126.943C137.788 128.846 139.286 130.748 140.783 132.65C140.973 132.904 141.353 133.178 141.121 133.559C140.931 133.876 140.551 133.749 140.235 133.749C134.539 133.77 128.844 133.643 123.17 133.834C121.271 133.897 120.216 133.178 119.183 131.826C110.893 121.194 102.582 110.584 94.2704 99.9526C93.1102 98.4519 91.9289 96.9724 90.7265 95.4929C90.2203 94.8799 90.0937 94.3938 90.7054 93.6752C94.0383 89.7227 97.2868 85.728 100.578 81.7333C103.784 77.8654 106.969 73.9975 110.197 70.1296C113.361 66.3251 116.546 62.5206 119.71 58.7161C120.132 58.2088 120.638 58.0609 121.271 58.0609C127.388 58.082 133.506 58.082 139.623 58.082C139.939 58.082 140.382 57.8918 140.551 58.3357C140.699 58.7161 140.382 58.9909 140.15 59.2445C137.092 62.9222 134.033 66.5787 130.974 70.2564C126.439 75.7095 121.904 81.1626 117.39 86.6157C117.2 86.8482 116.862 87.0596 117.052 87.4189C117.2 87.7148 117.558 87.588 117.812 87.588C122.094 87.6091 126.376 87.6091 130.679 87.6091C151.141 87.6091 171.581 87.6091 192.042 87.6091C192.042 93.0411 192.042 98.4519 192.042 103.884C191.494 104.349 190.84 104.201 190.228 104.201C168.248 104.201 146.268 104.201 124.288 104.201C122.811 104.201 121.334 104.201 119.858 104.201C119.562 104.201 119.183 104.116 119.014 104.476C118.866 104.835 119.141 105.067 119.33 105.3C121.039 107.562 122.79 109.76 124.498 111.979Z" fill="white"/>
<path d="M67.5653 57.8919C72.86 57.8707 78.1546 57.8707 83.4493 57.8496C84.0399 57.8496 84.2509 58.0821 84.2509 58.6528C84.3141 61.0412 84.3563 63.4295 84.3563 65.7968C84.4196 87.9685 84.3985 110.161 84.3985 132.333C84.3985 133.982 84.2298 134.151 82.6055 134.151C78.0281 134.151 73.4717 134.151 68.8943 134.151C68.3247 134.151 67.7552 134.172 67.3333 133.707C67.0169 133.348 67.1223 132.904 67.1223 132.502C67.1223 108.175 67.1223 83.8681 67.1223 59.5405C67.1434 58.9698 67.038 58.3569 67.5653 57.8919Z" fill="white"/>
</svg>
