<svg width="96" height="53" viewBox="0 0 96 53" fill="none" xmlns="http://www.w3.org/2000/svg">
<path d="M7.5 23.8597C7.5 21.9267 5.933 20.3597 4 20.3597C2.067 20.3597 0.5 21.9267 0.5 23.8597H7.5ZM0.5 29.5339C0.5 31.4669 2.067 33.0339 4 33.0339C5.933 33.0339 7.5 31.4669 7.5 29.5339H0.5ZM22.1567 15.3484C22.1567 13.4154 20.5897 11.8484 18.6567 11.8484C16.7237 11.8484 15.1567 13.4154 15.1567 15.3484H22.1567ZM15.1567 38.0452C15.1567 39.9782 16.7237 41.5452 18.6567 41.5452C20.5897 41.5452 22.1567 39.9782 22.1567 38.0452H15.1567ZM36.8133 21.0226C36.8133 19.0896 35.2463 17.5226 33.3133 17.5226C31.3803 17.5226 29.8133 19.0896 29.8133 21.0226H36.8133ZM29.8133 32.371C29.8133 34.304 31.3803 35.871 33.3133 35.871C35.2463 35.871 36.8133 34.304 36.8133 32.371H29.8133ZM51.47 12.5113C51.47 10.5783 49.903 9.0113 47.97 9.0113C46.037 9.0113 44.47 10.5783 44.47 12.5113H51.47ZM44.47 40.8823C44.47 42.8153 46.037 44.3823 47.97 44.3823C49.903 44.3823 51.47 42.8153 51.47 40.8823H44.47ZM66.1266 4C66.1266 2.067 64.5596 0.5 62.6266 0.5C60.6937 0.5 59.1266 2.067 59.1266 4H66.1266ZM59.1266 49.3936C59.1266 51.3266 60.6937 52.8936 62.6266 52.8936C64.5596 52.8936 66.1266 51.3266 66.1266 49.3936H59.1266ZM80.7833 18.1855C80.7833 16.2525 79.2163 14.6855 77.2833 14.6855C75.3503 14.6855 73.7833 16.2525 73.7833 18.1855H80.7833ZM73.7833 35.2081C73.7833 37.1411 75.3503 38.7081 77.2833 38.7081C79.2163 38.7081 80.7833 37.1411 80.7833 35.2081H73.7833ZM95.44 23.8597C95.44 21.9267 93.873 20.3597 91.94 20.3597C90.007 20.3597 88.44 21.9267 88.44 23.8597H95.44ZM88.44 29.5339C88.44 31.4669 90.007 33.0339 91.94 33.0339C93.873 33.0339 95.44 31.4669 95.44 29.5339H88.44ZM0.5 23.8597V29.5339H7.5V23.8597H0.5ZM15.1567 15.3484V38.0452H22.1567V15.3484H15.1567ZM29.8133 21.0226V32.371H36.8133V21.0226H29.8133ZM44.47 12.5113V40.8823H51.47V12.5113H44.47ZM59.1266 4V49.3936H66.1266V4H59.1266ZM73.7833 18.1855V35.2081H80.7833V18.1855H73.7833ZM88.44 23.8597V29.5339H95.44V23.8597H88.44Z" fill="#0047FF"/>
</svg>
